<svg width="23" height="22" viewBox="0 0 23 22" fill="none" xmlns="http://www.w3.org/2000/svg">
<path d="M12.3575 0.165039C13.5734 0.168282 14.1905 0.174766 14.7234 0.189898L14.9331 0.197464C15.1752 0.20611 15.414 0.216919 15.7026 0.229889C16.8526 0.28393 17.6373 0.465509 18.3258 0.732472C19.0391 1.007 19.6401 1.37881 20.241 1.97866C20.7906 2.51896 21.2159 3.17253 21.4872 3.89389C21.7542 4.58237 21.9357 5.36705 21.9898 6.51813C22.0028 6.80563 22.0136 7.04449 22.0222 7.28768L22.0287 7.49736C22.0449 8.02912 22.0514 8.64627 22.0536 9.8622L22.0546 10.6685V12.0844C22.0573 12.8727 22.049 13.6611 22.0298 14.4492L22.0233 14.6589C22.0146 14.9021 22.0038 15.141 21.9909 15.4285C21.9368 16.5795 21.7531 17.3631 21.4872 18.0527C21.2166 18.7744 20.7913 19.4282 20.241 19.9679C19.7006 20.5173 19.047 20.9426 18.3258 21.2141C17.6373 21.4811 16.8526 21.6627 15.7026 21.7167C15.4462 21.7288 15.1896 21.7396 14.9331 21.7491L14.7234 21.7556C14.1905 21.7707 13.5734 21.7783 12.3575 21.7805L11.5512 21.7815H10.1364C9.34765 21.7843 8.55893 21.776 7.77044 21.7567L7.56076 21.7502C7.30419 21.7405 7.04767 21.7293 6.79121 21.7167C5.64122 21.6627 4.85654 21.4811 4.16697 21.2141C3.4457 20.9432 2.7924 20.5179 2.25283 19.9679C1.70274 19.4278 1.27709 18.7742 1.00556 18.0527C0.738593 17.3642 0.557014 16.5795 0.502973 15.4285C0.490931 15.172 0.480123 14.9155 0.470548 14.6589L0.465144 14.4492C0.445227 13.6611 0.436219 12.8727 0.438124 12.0844V9.8622C0.435107 9.07385 0.443034 8.28549 0.461902 7.49736L0.469468 7.28768C0.478114 7.04449 0.488922 6.80563 0.501892 6.51813C0.555934 5.36705 0.737512 4.58345 1.00448 3.89389C1.27589 3.17179 1.70239 2.51802 2.25391 1.97866C2.79334 1.42904 3.44622 1.00375 4.16697 0.732472C4.85654 0.465509 5.64014 0.28393 6.79121 0.229889C7.07871 0.216919 7.31866 0.20611 7.56076 0.197464L7.77044 0.190979C8.55857 0.171776 9.34693 0.163488 10.1353 0.16612L12.3575 0.165039ZM11.2464 5.56917C9.81311 5.56917 8.43855 6.13853 7.42508 7.152C6.41161 8.16547 5.84225 9.54003 5.84225 10.9733C5.84225 12.4066 6.41161 13.7811 7.42508 14.7946C8.43855 15.8081 9.81311 16.3774 11.2464 16.3774C12.6796 16.3774 14.0542 15.8081 15.0677 14.7946C16.0811 13.7811 16.6505 12.4066 16.6505 10.9733C16.6505 9.54003 16.0811 8.16547 15.0677 7.152C14.0542 6.13853 12.6796 5.56917 11.2464 5.56917ZM11.2464 7.73082C11.6722 7.73074 12.0938 7.81454 12.4873 7.97743C12.8807 8.14031 13.2382 8.37909 13.5393 8.68013C13.8405 8.98117 14.0794 9.33858 14.2424 9.73195C14.4054 10.1253 14.4893 10.5469 14.4894 10.9728C14.4895 11.3986 14.4057 11.8202 14.2428 12.2136C14.0799 12.6071 13.8411 12.9645 13.5401 13.2657C13.239 13.5668 12.8816 13.8057 12.4883 13.9687C12.0949 14.1318 11.6733 14.2157 11.2475 14.2158C10.3875 14.2158 9.56276 13.8742 8.95468 13.2661C8.3466 12.658 8.00498 11.8332 8.00498 10.9733C8.00498 10.1133 8.3466 9.2886 8.95468 8.68051C9.56276 8.07243 10.3875 7.73082 11.2475 7.73082M16.9218 3.94793C16.5635 3.94793 16.2198 4.09027 15.9665 4.34364C15.7131 4.597 15.5708 4.94064 15.5708 5.29896C15.5708 5.65727 15.7131 6.00091 15.9665 6.25428C16.2198 6.50765 16.5635 6.64999 16.9218 6.64999C17.2801 6.64999 17.6237 6.50765 17.8771 6.25428C18.1305 6.00091 18.2728 5.65727 18.2728 5.29896C18.2728 4.94064 18.1305 4.597 17.8771 4.34364C17.6237 4.09027 17.2801 3.94793 16.9218 3.94793Z" fill="black"/>
</svg>
