<svg width="23" height="22" viewBox="0 0 23 22" fill="none" xmlns="http://www.w3.org/2000/svg">
<path d="M20.9256 0.164062H1.68695C1.37164 0.164063 1.06923 0.289322 0.84627 0.512286C0.623307 0.735249 0.498047 1.03765 0.498047 1.35297V20.5917C0.498047 20.907 0.623307 21.2094 0.84627 21.4323C1.06923 21.6553 1.37164 21.7806 1.68695 21.7806H12.0413V13.4042H9.23111V10.1617H12.0413V7.72984C11.983 7.1589 12.0505 6.58214 12.2387 6.04001C12.427 5.49788 12.7317 5.00351 13.1312 4.59157C13.5308 4.17963 14.0157 3.8601 14.5518 3.65539C15.088 3.45067 15.6624 3.36574 16.2349 3.40654C17.0761 3.40136 17.9169 3.44467 18.7532 3.53624V6.45447H17.0347C15.6728 6.45447 15.4134 7.10296 15.4134 8.04328V10.1293H18.6559L18.2344 13.3717H15.4134V21.7806H20.9256C21.0818 21.7806 21.2364 21.7498 21.3806 21.6901C21.5249 21.6303 21.6559 21.5427 21.7663 21.4323C21.8767 21.3219 21.9643 21.1909 22.0241 21.0466C22.0838 20.9024 22.1146 20.7478 22.1146 20.5917V1.35297C22.1146 1.19684 22.0838 1.04224 22.0241 0.897995C21.9643 0.75375 21.8767 0.622686 21.7663 0.512286C21.6559 0.401885 21.5249 0.314311 21.3806 0.254563C21.2364 0.194815 21.0818 0.164062 20.9256 0.164062Z" fill="black"/>
</svg>
