<svg width="22" height="22" viewBox="0 0 22 22" fill="none" xmlns="http://www.w3.org/2000/svg">
<path d="M0.189453 1.71039C0.189453 0.855189 0.900096 0.162109 1.77692 0.162109H20.2185C21.0953 0.162109 21.806 0.855189 21.806 1.71039V20.2303C21.806 21.0855 21.0953 21.7786 20.2185 21.7786H1.77692C0.900096 21.7786 0.189453 21.0855 0.189453 20.2303V1.71039ZM6.8676 18.2578V8.49662H3.62378V18.2578H6.8676ZM5.24636 7.16316C6.37718 7.16316 7.08106 6.41468 7.08106 5.47707C7.0608 4.51919 6.37853 3.79098 5.26798 3.79098C4.15743 3.79098 3.43193 4.52054 3.43193 5.47707C3.43193 6.41468 4.13582 7.16316 5.22475 7.16316H5.24636ZM11.8772 18.2578V12.8064C11.8772 12.5146 11.8988 12.2228 11.9853 12.0147C12.219 11.4324 12.7527 10.8285 13.6498 10.8285C14.8238 10.8285 15.2926 11.7229 15.2926 13.0361V18.2578H18.5365V12.6592C18.5365 9.65986 16.9368 8.2656 14.8022 8.2656C13.081 8.2656 12.3096 9.21132 11.8772 9.87738V9.91115H11.8556L11.8772 9.87738V8.49662H8.63475C8.67528 9.41262 8.63475 18.2578 8.63475 18.2578H11.8772Z" fill="black"/>
</svg>
