<svg width="26" height="26" viewBox="0 0 26 26" fill="none" xmlns="http://www.w3.org/2000/svg">
<path d="M13.0969 0C20.2674 0 26.0668 5.7994 26.0668 12.9699C26.0668 20.1404 20.2674 25.9398 13.0969 25.9398C5.92635 25.9398 0.126953 20.1404 0.126953 12.9699C0.126953 5.7994 5.92635 0 13.0969 0ZM10.7252 19.8069C16.469 19.8069 19.6189 15.0451 19.6189 10.9132V10.5056C20.2303 10.0609 20.7676 9.50509 21.1753 8.87512C20.6194 9.11599 20.008 9.28274 19.378 9.37539C20.0265 8.98629 20.5268 8.37485 20.7491 7.65224C20.1377 8.00428 19.4706 8.26368 18.7666 8.41191C18.1922 7.80047 17.3769 7.4299 16.4876 7.4299C14.7644 7.4299 13.3563 8.83806 13.3563 10.5612C13.3563 10.8021 13.3748 11.0429 13.4489 11.2653C10.8549 11.1356 8.53886 9.89418 7.001 8.00428C6.7416 8.46749 6.57485 9.00482 6.57485 9.5792C6.57485 10.6538 7.1307 11.6173 7.96448 12.1732C7.44568 12.1732 6.96394 12.025 6.55632 11.7841V11.8211C6.55632 13.3405 7.63097 14.6004 9.05766 14.8969C8.79826 14.971 8.52033 15.008 8.24241 15.008C8.03859 15.008 7.85331 14.9895 7.6495 14.9524C8.03859 16.1938 9.20588 17.1017 10.5585 17.1203C9.48381 17.9541 8.13124 18.4543 6.66749 18.4543C6.40809 18.4543 6.16722 18.4543 5.92635 18.4173C7.29746 19.3066 8.94649 19.8254 10.7067 19.8254" fill="black"/>
</svg>
